<svg width="18" height="18" viewBox="0 0 18 18" fill="none" xmlns="http://www.w3.org/2000/svg">
<path d="M12.0917 9.59179C12.9087 8.94904 13.505 8.06754 13.7977 7.0701C14.0904 6.07261 14.0649 5.0087 13.7248 4.02637C13.3848 3.04403 12.7469 2.19214 11.9001 1.58919C11.0533 0.98624 10.0395 0.662231 9 0.662231C7.96042 0.662231 6.94676 0.98624 6.09994 1.58919C5.25312 2.19214 4.61528 3.04403 4.27518 4.02637C3.93507 5.0087 3.90959 6.07261 4.2023 7.0701C4.49501 8.06754 5.09133 8.94904 5.90833 9.59179C4.50839 10.1527 3.2869 11.083 2.37408 12.2834C1.46124 13.4839 0.8913 14.9095 0.725 16.4085C0.712958 16.5179 0.722592 16.6286 0.75335 16.7344C0.784108 16.84 0.835383 16.9387 0.904258 17.0245C1.04335 17.198 1.24565 17.3092 1.46667 17.3335C1.68768 17.3578 1.9093 17.2933 2.08277 17.1542C2.25624 17.0151 2.36735 16.8128 2.39167 16.5918C2.57465 14.9628 3.3514 13.4583 4.57352 12.3658C5.79563 11.2733 7.37742 10.6694 9.01667 10.6694C10.6559 10.6694 12.2377 11.2733 13.4598 12.3658C14.6819 13.4583 15.4587 14.9628 15.6417 16.5918C15.6643 16.7965 15.762 16.9857 15.9159 17.1226C16.0698 17.2596 16.269 17.3347 16.475 17.3335H16.5667C16.7851 17.3084 16.9848 17.1979 17.1222 17.0262C17.2595 16.8545 17.3234 16.6355 17.3 16.4168C17.1329 14.9136 16.5599 13.4843 15.6423 12.282C14.7248 11.0796 13.4974 10.1497 12.0917 9.59179ZM9 9.00012C8.34075 9.00012 7.69625 8.80462 7.1481 8.43837C6.59993 8.07212 6.17269 7.55154 5.9204 6.94242C5.66811 6.33333 5.60209 5.66312 5.73072 5.01651C5.85933 4.36991 6.1768 3.77597 6.64298 3.30979C7.10915 2.84362 7.70308 2.52614 8.34967 2.39752C8.99633 2.26891 9.6665 2.33492 10.2756 2.58721C10.8847 2.83951 11.4053 3.26675 11.7716 3.81491C12.1378 4.36307 12.3333 5.00754 12.3333 5.66681C12.3333 6.55087 11.9822 7.39871 11.357 8.02387C10.7319 8.64896 9.88408 9.00012 9 9.00012Z" fill="#182233"/>
</svg>
