<svg width="18" height="18" viewBox="0 0 18 18" fill="none" xmlns="http://www.w3.org/2000/svg">
<path d="M17.0916 15.9082L13.9999 12.8416C15.2 11.3453 15.7812 9.446 15.6239 7.53434C15.4667 5.62268 14.583 3.84391 13.1545 2.56379C11.7261 1.28368 9.86142 0.599512 7.944 0.651979C6.02662 0.704454 4.20219 1.48956 2.84588 2.84588C1.48956 4.20219 0.704454 6.02662 0.651979 7.944C0.599512 9.86142 1.28368 11.7261 2.5638 13.1545C3.84391 14.583 5.62268 15.4667 7.53434 15.6239C9.446 15.7812 11.3453 15.2 12.8416 13.9999L15.9083 17.0666C15.9858 17.1447 16.0779 17.2067 16.1794 17.249C16.281 17.2913 16.3899 17.3131 16.4999 17.3131C16.6099 17.3131 16.7188 17.2913 16.8204 17.249C16.9219 17.2067 17.0141 17.1447 17.0916 17.0666C17.2418 16.9112 17.3258 16.7035 17.3258 16.4874C17.3258 16.2713 17.2418 16.0637 17.0916 15.9082ZM8.16659 13.9999C7.01287 13.9999 5.88505 13.6578 4.92576 13.0168C3.96648 12.3758 3.2188 11.4648 2.7773 10.3989C2.33578 9.333 2.22026 8.16008 2.44535 7.02856C2.67042 5.89701 3.226 4.8576 4.0418 4.0418C4.8576 3.22599 5.89701 2.67042 7.02856 2.44535C8.16009 2.22026 9.333 2.33578 10.3989 2.7773C11.4648 3.2188 12.3758 3.96648 13.0168 4.92576C13.6578 5.88505 13.9999 7.01287 13.9999 8.16658C13.9999 9.71367 13.3853 11.1974 12.2914 12.2914C11.1974 13.3853 9.71367 13.9999 8.16659 13.9999Z" fill="#182233"/>
</svg>
